Coordinates
version=1
nRows=21
nColumns=28
inDegrees=yes

Units are S.I. units (second, meters, Newtons, ...)
Angles are in degrees.

endheader
time	pelvis_tilt	pelvis_list	pelvis_rotation	pelvis_tx	pelvis_ty	pelvis_tz	hip_flexion_r	hip_adduction_r	hip_rotation_r	knee_angle_r	ankle_angle_r	subtalar_angle_r	mtp_angle_r	hip_flexion_l	hip_adduction_l	hip_rotation_l	knee_angle_l	socket_flexion	socket_adduction	socket_rotation	socket_tx	socket_ty	socket_tz	foot_flex	lumbar_extension	lumbar_bending	lumbar_rotation
      0.26666667	     -0.17140852	      5.65621813	     -2.66538849	     -0.38816948	      0.98219254	      0.23145618	     14.49745217	     -9.96580565	      1.15897697	    -64.49516242	    -14.71857911	    -12.48476125	     18.97425139	     10.09082028	      7.21809184	      2.31916368	    -23.69208001	     -2.20874689	      0.00000000	      0.00000000	      0.00000000	     -0.00446690	      0.00000000	      4.79333202	     -6.99057285	     -6.99810257	     -3.69425567
      0.27083333	      0.50407881	      5.52466499	     -2.96864240	     -0.38177350	      0.98439890	      0.23195571	     14.47391110	     -9.82137077	      1.37139124	    -64.37055053	    -13.97673883	    -12.80819196	     17.39785535	      8.12906553	      7.07710538	      2.37928382	    -21.47028695	     -1.06387263	      0.00000000	      0.00000000	      0.00000000	     -0.00506888	      0.00000000	      4.83034865	     -7.69166742	     -6.88997604	     -3.67699180
      0.27500000	      0.50854840	      5.34042817	     -2.91799469	     -0.37620691	      0.98537099	      0.23178186	     15.23486693	     -9.65248137	      1.33562700	    -64.37136806	    -13.15639299	    -13.19510518	     17.35827995	      7.57840250	      6.91255492	      2.52760694	    -21.20045285	     -1.12020582	      0.00000000	      0.00000000	      0.00000000	     -0.00487364	      0.00000000	      4.84042431	     -7.72720890	     -6.65384469	     -3.87997547
      0.27916667	      0.50090504	      5.13138617	     -2.85901284	     -0.37051558	      0.98635158	      0.23169343	     15.96342089	     -9.41342597	      1.32431527	    -64.31237797	    -12.28224574	    -13.65516130	     17.25554900	      6.96103540	      6.70958413	      2.68424481	    -20.72935120	     -1.05711498	      0.00000000	      0.00000000	      0.00000000	     -0.00480986	      0.00000000	      4.86346144	     -7.74064311	     -6.37627994	     -4.17889859
      0.28333333	      0.52387858	      4.91929268	     -2.81456749	     -0.36478867	      0.98737206	      0.23164010	     16.63576263	     -9.17524801	      1.30041494	    -64.17353086	    -11.53265700	    -14.10974067	     17.03276367	      6.25331664	      6.49794556	      2.84713363	    -20.06221712	     -0.85757560	      0.00000000	      0.00000000	      0.00000000	     -0.00480658	      0.00000000	      4.89230740	     -7.78809022	     -6.10712167	     -4.51149748
      0.28750000	      0.78496406	      4.70779190	     -2.85615295	     -0.35874513	      0.98886348	      0.23174613	     16.96279842	     -8.92366393	      1.31895795	    -63.86526621	    -10.90641145	    -14.62972603	     16.15818366	      5.01009672	      6.28267703	      3.02844955	    -18.58999196	     -0.16657919	      0.00000000	      0.00000000	      0.00000000	     -0.00496606	      0.00000000	      4.89260117	     -8.06869072	     -5.83726855	     -4.87629270
      0.29166667	      0.79978297	      4.52526326	     -2.80518844	     -0.35329283	      0.98976338	      0.23164270	     17.65574640	     -8.74252983	      1.25892533	    -63.65646402	    -10.17576292	    -14.93810670	     16.12461501	      4.46655680	      6.10826393	      3.15323729	    -18.38087555	     -0.29474484	      0.00000000	      0.00000000	      0.00000000	     -0.00473237	      0.00000000	      4.83251928	     -8.14022402	     -5.61201805	     -4.95212558
      0.29583333	      0.77618035	      4.27489439	     -2.71561484	     -0.34772424	      0.99070545	      0.23158558	     18.29490145	     -8.42083525	      1.22829184	    -63.31358952	     -9.32748171	    -15.34870788	     15.97753551	      3.86609890	      5.84642968	      3.32419845	    -17.87066475	     -0.21514563	      0.00000000	      0.00000000	      0.00000000	     -0.00458445	      0.00000000	      4.86607452	     -8.15062035	     -5.30163573	     -5.21303603
      0.30000000	      0.78530547	      4.22053846	     -2.64306717	     -0.34246709	      0.99164801	      0.23145015	     18.97624195	     -8.39222575	      1.18300837	    -62.95239458	     -9.17761262	    -15.42141243	     15.95775807	      3.39793621	      5.81161113	      3.41373115	    -17.77876370	     -0.39932891	      0.00000000	      0.00000000	      0.00000000	     -0.00391321	      0.00000000	      4.90192891	     -8.26796080	     -5.25732167	     -5.25515307
      0.30416667	      0.93671796	      3.76976386	     -2.57959055	     -0.33611326	      0.99296943	      0.23153766	     19.18558886	     -7.80730432	      1.09820582	    -62.30793117	     -8.16538980	    -16.23328686	     14.91507296	      2.09268119	      5.30840070	      3.74503182	    -15.81852855	      0.60673755	      0.00000000	      0.00000000	      0.00000000	     -0.00452580	      0.00000000	      4.82536057	     -8.37026973	     -4.65866431	     -6.05316618
      0.30833333	      0.95132941	      3.74298059	     -2.48180734	     -0.33111629	      0.99380940	      0.23141862	     19.86518594	     -7.79118689	      1.06349443	    -61.89777568	     -8.06430795	    -16.27329195	     14.90663874	      1.67276895	      5.29674499	      3.79937637	    -15.78688680	      0.42885630	      0.00000000	      0.00000000	      0.00000000	     -0.00381091	      0.00000000	      4.87076711	     -8.53353326	     -4.65341403	     -6.06156288
      0.31250000	      1.21804326	      3.26273813	     -2.50000778	     -0.32473924	      0.99516304	      0.23164667	     19.91771330	     -7.16670012	      0.99728568	    -61.16301095	     -6.83309663	    -16.95822716	     13.55496698	      0.29106865	      4.75869581	      4.07832359	    -14.10365146	      1.15172404	      0.00000000	      0.00000000	      0.00000000	     -0.00423192	      0.00000000	      4.80487589	     -8.76500943	     -4.06325008	     -6.44638783
      0.31666667	      1.14345653	      3.01912025	     -2.40671547	     -0.31938880	      0.99579355	      0.23157563	     20.55505518	     -6.85230118	      0.94276511	    -60.60165596	     -6.13537512	    -17.22013703	     13.42837152	     -0.16959255	      4.49686520	      4.22983156	    -13.81846415	      1.06594972	      0.00000000	      0.00000000	      0.00000000	     -0.00406292	      0.00000000	      4.76933881	     -8.74834680	     -3.75817426	     -6.54562903
      0.32083333	      1.09637681	      2.72910759	     -2.26936563	     -0.31371322	      0.99660300	      0.23159858	     21.01289501	     -6.47464121	      0.83402576	    -59.81728682	     -5.64379157	    -17.54032953	     12.92579742	     -0.80845072	      4.16191018	      4.43143407	    -13.10989634	      1.26400200	      0.00000000	      0.00000000	      0.00000000	     -0.00387193	      0.00000000	      4.76687593	     -8.73291635	     -3.41606392	     -6.91765265
      0.32500000	      1.08502962	      2.46604795	     -2.15183546	     -0.30815465	      0.99737071	      0.23158765	     21.45008696	     -6.12635840	      0.75725235	    -59.03385750	     -5.08356662	    -17.88242332	     12.49233560	     -1.43848152	      3.86439091	      4.60546925	    -12.53298121	      1.36408480	      0.00000000	      0.00000000	      0.00000000	     -0.00363426	      0.00000000	      4.73751452	     -8.76808913	     -3.10703356	     -7.16462893
      0.32916667	      1.03001087	      2.40953761	     -2.05960759	     -0.30274157	      0.99801128	      0.23159364	     21.98602292	     -6.01537483	      0.75656343	    -58.25113025	     -4.77135715	    -18.03177994	     12.42767725	     -1.88107001	      3.80172408	      4.70251675	    -12.36632776	      1.17403101	      0.00000000	      0.00000000	      0.00000000	     -0.00299391	      0.00000000	      4.69761891	     -8.75619094	     -3.05452430	     -7.23388138
      0.33333333	      1.21803456	      1.91299083	     -1.91231460	     -0.29689337	      0.99908451	      0.23162634	     22.01880845	     -5.39881733	      0.57156878	    -57.20604952	     -4.19283833	    -18.68730180	     11.07531920	     -2.99542942	      3.22533516	      5.00126319	    -10.96886203	      1.83868908	      0.00000000	      0.00000000	      0.00000000	     -0.00315763	      0.00000000	      4.68242752	     -9.01382532	     -2.43641832	     -7.83341837
      0.33750000	      1.09893151	      1.67763872	     -1.81093909	     -0.29148949	      0.99948179	      0.23168472	     22.54498646	     -5.05257584	      0.54611041	    -56.31102121	     -3.60610050	    -18.88956729	     10.91435655	     -3.40270846	      2.95091975	      5.11886609	    -10.70311691	      1.72529035	      0.00000000	      0.00000000	      0.00000000	     -0.00291084	      0.00000000	      4.63842824	     -8.94630132	     -2.16952099	     -7.89881590
      0.34166667	      1.01606871	      1.64495168	     -1.72117547	     -0.28613124	      0.99994291	      0.23173299	     23.03983640	     -4.96174793	      0.55129272	    -55.36304396	     -3.35575679	    -18.99759761	     10.85970060	     -3.78717806	      2.91000954	      5.18826463	    -10.57694882	      1.54095761	      0.00000000	      0.00000000	      0.00000000	     -0.00221103	      0.00000000	      4.64568036	     -8.91210303	     -2.16187420	     -7.96149264
      0.34583333	      0.87349882	      1.46139504	     -1.57931363	     -0.28061802	      1.00030979	      0.23181871	     23.49000241	     -4.66751072	      0.53937412	    -54.28996703	     -2.88594571	    -19.21847913	     10.76450759	     -4.16079208	      2.68291752	      5.32397312	    -10.32732807	      1.42600489	      0.00000000	      0.00000000	      0.00000000	     -0.00180128	      0.00000000	      4.60083987	     -8.80533101	     -1.97546110	     -8.10437535
      0.35000000	      0.74981669	      0.81949519	     -1.33579432	     -0.27490781	      1.00058431	      0.23167503	     23.77264367	     -3.91874616	      0.24304897	    -53.05634386	     -2.34511766	    -19.74054253	     10.14727723	     -4.74792096	      1.93291665	      5.60054361	     -9.48034332	      1.75381527	      0.00000000	      0.00000000	      0.00000000	     -0.00230403	      0.00000000	      4.63512689	     -8.71359051	     -1.14292899	     -8.70569585
